<svg xmlns="http://www.w3.org/2000/svg" width="340" height="150" viewBox="0 0 340 150" font-family="'PingFang SC','Hiragino Sans GB','Microsoft YaHei','Helvetica Neue',sans-serif"><rect width="340" height="150" fill="#ffffff"/><rect x="126.0" y="49.0" width="88.0" height="52.0" rx="4" fill="#f8fafc" stroke="#94a3b8" stroke-width="1.6" opacity="1"/>
<line x1="126.0" y1="57.0" x2="214.0" y2="57.0" stroke="#dc2626" stroke-width="1.6" stroke-linecap="round"/>
<line x1="126.0" y1="93.0" x2="214.0" y2="93.0" stroke="#1d4ed8" stroke-width="1.6" stroke-linecap="round"/>
<circle cx="134.0" cy="67.0" r="1.4" fill="#475569" stroke="none" stroke-width="0"/>
<circle cx="134.0" cy="67.0" r="1.4" fill="#475569" stroke="none" stroke-width="0"/>
<circle cx="134.0" cy="67.0" r="1.4" fill="#475569" stroke="none" stroke-width="0"/>
<circle cx="143.0" cy="67.0" r="1.4" fill="#475569" stroke="none" stroke-width="0"/>
<circle cx="143.0" cy="67.0" r="1.4" fill="#475569" stroke="none" stroke-width="0"/>
<circle cx="143.0" cy="67.0" r="1.4" fill="#475569" stroke="none" stroke-width="0"/>
<circle cx="152.0" cy="67.0" r="1.4" fill="#475569" stroke="none" stroke-width="0"/>
<circle cx="152.0" cy="67.0" r="1.4" fill="#475569" stroke="none" stroke-width="0"/>
<circle cx="152.0" cy="67.0" r="1.4" fill="#475569" stroke="none" stroke-width="0"/>
<circle cx="161.0" cy="67.0" r="1.4" fill="#475569" stroke="none" stroke-width="0"/>
<circle cx="161.0" cy="67.0" r="1.4" fill="#475569" stroke="none" stroke-width="0"/>
<circle cx="161.0" cy="67.0" r="1.4" fill="#475569" stroke="none" stroke-width="0"/>
<circle cx="170.0" cy="67.0" r="1.4" fill="#475569" stroke="none" stroke-width="0"/>
<circle cx="170.0" cy="67.0" r="1.4" fill="#475569" stroke="none" stroke-width="0"/>
<circle cx="170.0" cy="67.0" r="1.4" fill="#475569" stroke="none" stroke-width="0"/>
<circle cx="179.0" cy="67.0" r="1.4" fill="#475569" stroke="none" stroke-width="0"/>
<circle cx="179.0" cy="67.0" r="1.4" fill="#475569" stroke="none" stroke-width="0"/>
<circle cx="179.0" cy="67.0" r="1.4" fill="#475569" stroke="none" stroke-width="0"/>
<circle cx="188.0" cy="67.0" r="1.4" fill="#475569" stroke="none" stroke-width="0"/>
<circle cx="188.0" cy="67.0" r="1.4" fill="#475569" stroke="none" stroke-width="0"/>
<circle cx="188.0" cy="67.0" r="1.4" fill="#475569" stroke="none" stroke-width="0"/>
<circle cx="197.0" cy="67.0" r="1.4" fill="#475569" stroke="none" stroke-width="0"/>
<circle cx="197.0" cy="67.0" r="1.4" fill="#475569" stroke="none" stroke-width="0"/>
<circle cx="197.0" cy="67.0" r="1.4" fill="#475569" stroke="none" stroke-width="0"/>
<circle cx="206.0" cy="67.0" r="1.4" fill="#475569" stroke="none" stroke-width="0"/>
<circle cx="206.0" cy="67.0" r="1.4" fill="#475569" stroke="none" stroke-width="0"/>
<circle cx="206.0" cy="67.0" r="1.4" fill="#475569" stroke="none" stroke-width="0"/>
<circle cx="134.0" cy="83.0" r="1.4" fill="#475569" stroke="none" stroke-width="0"/>
<circle cx="134.0" cy="83.0" r="1.4" fill="#475569" stroke="none" stroke-width="0"/>
<circle cx="134.0" cy="83.0" r="1.4" fill="#475569" stroke="none" stroke-width="0"/>
<circle cx="143.0" cy="83.0" r="1.4" fill="#475569" stroke="none" stroke-width="0"/>
<circle cx="143.0" cy="83.0" r="1.4" fill="#475569" stroke="none" stroke-width="0"/>
<circle cx="143.0" cy="83.0" r="1.4" fill="#475569" stroke="none" stroke-width="0"/>
<circle cx="152.0" cy="83.0" r="1.4" fill="#475569" stroke="none" stroke-width="0"/>
<circle cx="152.0" cy="83.0" r="1.4" fill="#475569" stroke="none" stroke-width="0"/>
<circle cx="152.0" cy="83.0" r="1.4" fill="#475569" stroke="none" stroke-width="0"/>
<circle cx="161.0" cy="83.0" r="1.4" fill="#475569" stroke="none" stroke-width="0"/>
<circle cx="161.0" cy="83.0" r="1.4" fill="#475569" stroke="none" stroke-width="0"/>
<circle cx="161.0" cy="83.0" r="1.4" fill="#475569" stroke="none" stroke-width="0"/>
<circle cx="170.0" cy="83.0" r="1.4" fill="#475569" stroke="none" stroke-width="0"/>
<circle cx="170.0" cy="83.0" r="1.4" fill="#475569" stroke="none" stroke-width="0"/>
<circle cx="170.0" cy="83.0" r="1.4" fill="#475569" stroke="none" stroke-width="0"/>
<circle cx="179.0" cy="83.0" r="1.4" fill="#475569" stroke="none" stroke-width="0"/>
<circle cx="179.0" cy="83.0" r="1.4" fill="#475569" stroke="none" stroke-width="0"/>
<circle cx="179.0" cy="83.0" r="1.4" fill="#475569" stroke="none" stroke-width="0"/>
<circle cx="188.0" cy="83.0" r="1.4" fill="#475569" stroke="none" stroke-width="0"/>
<circle cx="188.0" cy="83.0" r="1.4" fill="#475569" stroke="none" stroke-width="0"/>
<circle cx="188.0" cy="83.0" r="1.4" fill="#475569" stroke="none" stroke-width="0"/>
<circle cx="197.0" cy="83.0" r="1.4" fill="#475569" stroke="none" stroke-width="0"/>
<circle cx="197.0" cy="83.0" r="1.4" fill="#475569" stroke="none" stroke-width="0"/>
<circle cx="197.0" cy="83.0" r="1.4" fill="#475569" stroke="none" stroke-width="0"/>
<circle cx="206.0" cy="83.0" r="1.4" fill="#475569" stroke="none" stroke-width="0"/>
<circle cx="206.0" cy="83.0" r="1.4" fill="#475569" stroke="none" stroke-width="0"/>
<circle cx="206.0" cy="83.0" r="1.4" fill="#475569" stroke="none" stroke-width="0"/></svg>