<svg xmlns="http://www.w3.org/2000/svg" width="1060" height="600" viewBox="0 0 1060 600" font-family="'PingFang SC','Hiragino Sans GB','Microsoft YaHei','Helvetica Neue',sans-serif"><rect width="1060" height="600" fill="#ffffff"/><text x="24.0" y="40.0" font-size="24" fill="#111827" text-anchor="start" font-weight="700" font-family="'PingFang SC','Hiragino Sans GB','Microsoft YaHei','Helvetica Neue',sans-serif" opacity="1">RC 充放电与时间常数 τ = R × C</text>
<text x="24.0" y="66.0" font-size="14" fill="#6b7280" text-anchor="start" font-weight="normal" font-family="'PingFang SC','Hiragino Sans GB','Microsoft YaHei','Helvetica Neue',sans-serif" opacity="1">τ 越大充放越慢；1τ=63.2%，3τ=95%，5τ=99.3%（视为充满）；按键去抖、上电复位、延时都靠它</text>
<line x1="110.0" y1="420.0" x2="670.0" y2="420.0" stroke="#111827" stroke-width="1.6" stroke-linecap="round"/>
<line x1="110.0" y1="420.0" x2="110.0" y2="90.0" stroke="#111827" stroke-width="1.6" stroke-linecap="round"/>
<line x1="656.0" y1="420.0" x2="676.0" y2="420.0" stroke="#111827" stroke-width="1.6" stroke-linecap="round"/>
<path d="M 676.0 420.0 L 669.6 422.9 L 669.6 417.1 Z" fill="#111827" stroke="#111827" stroke-width="1" stroke-linejoin="round" stroke-linecap="round"/>
<line x1="110.0" y1="104.0" x2="110.0" y2="84.0" stroke="#111827" stroke-width="1.6" stroke-linecap="round"/>
<path d="M 110.0 84.0 L 112.9 90.4 L 107.1 90.4 Z" fill="#111827" stroke="#111827" stroke-width="1" stroke-linejoin="round" stroke-linecap="round"/>
<text x="670.0" y="446.0" font-size="13" fill="#6b7280" text-anchor="end" font-weight="normal" font-family="'PingFang SC','Hiragino Sans GB','Microsoft YaHei','Helvetica Neue',sans-serif" opacity="1">时间 t</text>
<text x="102.0" y="88.0" font-size="13" fill="#6b7280" text-anchor="end" font-weight="normal" font-family="'PingFang SC','Hiragino Sans GB','Microsoft YaHei','Helvetica Neue',sans-serif" opacity="1">电压 Uc</text>
<line x1="110.0" y1="106.5" x2="670.0" y2="106.5" stroke="#d7dee8" stroke-width="1" stroke-linecap="round" stroke-dasharray="4 4"/>
<text x="666.0" y="98.5" font-size="12" fill="#6b7280" text-anchor="end" font-weight="normal" font-family="'PingFang SC','Hiragino Sans GB','Microsoft YaHei','Helvetica Neue',sans-serif" opacity="1">Vin (电源电压)</text>
<path d="M 110.0 420.0 L 114.7 406.5 L 119.3 393.6 L 124.0 381.2 L 128.7 369.3 L 133.3 357.9 L 138.0 347.0 L 142.7 336.5 L 147.3 326.5 L 152.0 316.8 L 156.7 307.5 L 161.3 298.7 L 166.0 290.2 L 170.7 282.0 L 175.3 274.2 L 180.0 266.6 L 184.7 259.4 L 189.3 252.5 L 194.0 245.9 L 198.7 239.5 L 203.3 233.4 L 208.0 227.6 L 212.7 222.0 L 217.3 216.6 L 222.0 211.4 L 226.7 206.4 L 231.3 201.7 L 236.0 197.1 L 240.7 192.8 L 245.3 188.6 L 250.0 184.5 L 254.7 180.7 L 259.3 177.0 L 264.0 173.4 L 268.7 170.0 L 273.3 166.8 L 278.0 163.6 L 282.7 160.6 L 287.3 157.7 L 292.0 155.0 L 296.7 152.3 L 301.3 149.8 L 306.0 147.3 L 310.7 145.0 L 315.3 142.8 L 320.0 140.6 L 324.7 138.5 L 329.3 136.6 L 334.0 134.7 L 338.7 132.8 L 343.3 131.1 L 348.0 129.4 L 352.7 127.8 L 357.3 126.3 L 362.0 124.8 L 366.7 123.4 L 371.3 122.0 L 376.0 120.7 L 380.7 119.4 L 385.3 118.2 L 390.0 117.1 L 394.7 116.0 L 399.3 114.9 L 404.0 113.9 L 408.7 112.9 L 413.3 112.0 L 418.0 111.1 L 422.7 110.2 L 427.3 109.4 L 432.0 108.6 L 436.7 107.9 L 441.3 107.1 L 446.0 106.4 L 450.7 105.8 L 455.3 105.1 L 460.0 104.5 L 464.7 103.9 L 469.3 103.3 L 474.0 102.8 L 478.7 102.3 L 483.3 101.8 L 488.0 101.3 L 492.7 100.8 L 497.3 100.4 L 502.0 100.0 L 506.7 99.6 L 511.3 99.2 L 516.0 98.8 L 520.7 98.4 L 525.3 98.1 L 530.0 97.8 L 534.7 97.4 L 539.3 97.1 L 544.0 96.8 L 548.7 96.6 L 553.3 96.3 L 558.0 96.0 L 562.7 95.8 L 567.3 95.6 L 572.0 95.3 L 576.7 95.1 L 581.3 94.9 L 586.0 94.7 L 590.7 94.5 L 595.3 94.3 L 600.0 94.2 L 604.7 94.0 L 609.3 93.8 L 614.0 93.7 L 618.7 93.5 L 623.3 93.4 L 628.0 93.2 L 632.7 93.1 L 637.3 93.0 L 642.0 92.9 L 646.7 92.7 L 651.3 92.6 L 656.0 92.5 L 660.7 92.4 L 665.3 92.3 L 670.0 92.2" fill="none" stroke="#2563eb" stroke-width="2.4" stroke-linejoin="round" stroke-linecap="round"/>
<path d="M 110.0 90.0 L 114.7 103.5 L 119.3 116.4 L 124.0 128.8 L 128.7 140.7 L 133.3 152.1 L 138.0 163.0 L 142.7 173.5 L 147.3 183.5 L 152.0 193.2 L 156.7 202.5 L 161.3 211.3 L 166.0 219.8 L 170.7 228.0 L 175.3 235.8 L 180.0 243.4 L 184.7 250.6 L 189.3 257.5 L 194.0 264.1 L 198.7 270.5 L 203.3 276.6 L 208.0 282.4 L 212.7 288.0 L 217.3 293.4 L 222.0 298.6 L 226.7 303.6 L 231.3 308.3 L 236.0 312.9 L 240.7 317.2 L 245.3 321.4 L 250.0 325.5 L 254.7 329.3 L 259.3 333.0 L 264.0 336.6 L 268.7 340.0 L 273.3 343.2 L 278.0 346.4 L 282.7 349.4 L 287.3 352.3 L 292.0 355.0 L 296.7 357.7 L 301.3 360.2 L 306.0 362.7 L 310.7 365.0 L 315.3 367.2 L 320.0 369.4 L 324.7 371.5 L 329.3 373.4 L 334.0 375.3 L 338.7 377.2 L 343.3 378.9 L 348.0 380.6 L 352.7 382.2 L 357.3 383.7 L 362.0 385.2 L 366.7 386.6 L 371.3 388.0 L 376.0 389.3 L 380.7 390.6 L 385.3 391.8 L 390.0 392.9 L 394.7 394.0 L 399.3 395.1 L 404.0 396.1 L 408.7 397.1 L 413.3 398.0 L 418.0 398.9 L 422.7 399.8 L 427.3 400.6 L 432.0 401.4 L 436.7 402.1 L 441.3 402.9 L 446.0 403.6 L 450.7 404.2 L 455.3 404.9 L 460.0 405.5 L 464.7 406.1 L 469.3 406.7 L 474.0 407.2 L 478.7 407.7 L 483.3 408.2 L 488.0 408.7 L 492.7 409.2 L 497.3 409.6 L 502.0 410.0 L 506.7 410.4 L 511.3 410.8 L 516.0 411.2 L 520.7 411.6 L 525.3 411.9 L 530.0 412.2 L 534.7 412.6 L 539.3 412.9 L 544.0 413.2 L 548.7 413.4 L 553.3 413.7 L 558.0 414.0 L 562.7 414.2 L 567.3 414.4 L 572.0 414.7 L 576.7 414.9 L 581.3 415.1 L 586.0 415.3 L 590.7 415.5 L 595.3 415.7 L 600.0 415.8 L 604.7 416.0 L 609.3 416.2 L 614.0 416.3 L 618.7 416.5 L 623.3 416.6 L 628.0 416.8 L 632.7 416.9 L 637.3 417.0 L 642.0 417.1 L 646.7 417.3 L 651.3 417.4 L 656.0 417.5 L 660.7 417.6 L 665.3 417.7 L 670.0 417.8" fill="none" stroke="#dc2626" stroke-width="2.4" stroke-linejoin="round" stroke-linecap="round"/>
<line x1="210.0" y1="420.0" x2="210.0" y2="129.6" stroke="#d7dee8" stroke-width="1" stroke-linecap="round" stroke-dasharray="3 4"/>
<text x="210.0" y="438.0" font-size="12" fill="#6b7280" text-anchor="middle" font-weight="normal" font-family="'PingFang SC','Hiragino Sans GB','Microsoft YaHei','Helvetica Neue',sans-serif" opacity="1">1τ</text>
<line x1="310.0" y1="420.0" x2="310.0" y2="129.6" stroke="#d7dee8" stroke-width="1" stroke-linecap="round" stroke-dasharray="3 4"/>
<text x="310.0" y="438.0" font-size="12" fill="#6b7280" text-anchor="middle" font-weight="normal" font-family="'PingFang SC','Hiragino Sans GB','Microsoft YaHei','Helvetica Neue',sans-serif" opacity="1">2τ</text>
<line x1="410.0" y1="420.0" x2="410.0" y2="129.6" stroke="#d7dee8" stroke-width="1" stroke-linecap="round" stroke-dasharray="3 4"/>
<text x="410.0" y="438.0" font-size="12" fill="#6b7280" text-anchor="middle" font-weight="normal" font-family="'PingFang SC','Hiragino Sans GB','Microsoft YaHei','Helvetica Neue',sans-serif" opacity="1">3τ</text>
<line x1="510.0" y1="420.0" x2="510.0" y2="129.6" stroke="#d7dee8" stroke-width="1" stroke-linecap="round" stroke-dasharray="3 4"/>
<text x="510.0" y="438.0" font-size="12" fill="#6b7280" text-anchor="middle" font-weight="normal" font-family="'PingFang SC','Hiragino Sans GB','Microsoft YaHei','Helvetica Neue',sans-serif" opacity="1">4τ</text>
<line x1="610.0" y1="420.0" x2="610.0" y2="129.6" stroke="#d7dee8" stroke-width="1" stroke-linecap="round" stroke-dasharray="3 4"/>
<text x="610.0" y="438.0" font-size="12" fill="#6b7280" text-anchor="middle" font-weight="normal" font-family="'PingFang SC','Hiragino Sans GB','Microsoft YaHei','Helvetica Neue',sans-serif" opacity="1">5τ</text>
<text x="457.2" y="189.0" font-size="14" fill="#2563eb" text-anchor="start" font-weight="600" font-family="'PingFang SC','Hiragino Sans GB','Microsoft YaHei','Helvetica Neue',sans-serif" opacity="1">充电 Uc=Vin(1−e^(−t/RC))</text>
<text x="457.2" y="327.6" font-size="14" fill="#dc2626" text-anchor="start" font-weight="600" font-family="'PingFang SC','Hiragino Sans GB','Microsoft YaHei','Helvetica Neue',sans-serif" opacity="1">放电 Uc=Vin·e^(−t/RC)</text>
<text x="830.0" y="84.0" font-size="15" fill="#111827" text-anchor="middle" font-weight="700" font-family="'PingFang SC','Hiragino Sans GB','Microsoft YaHei','Helvetica Neue',sans-serif" opacity="1">典型电路：上电延时 / 复位</text>
<line x1="830.0" y1="140.0" x2="830.0" y2="124.0" stroke="#dc2626" stroke-width="2" stroke-linecap="round"/>
<line x1="819.0" y1="124.0" x2="841.0" y2="124.0" stroke="#dc2626" stroke-width="2.6" stroke-linecap="round"/>
<text x="830.0" y="116.0" font-size="13" fill="#dc2626" text-anchor="middle" font-weight="700" font-family="'PingFang SC','Hiragino Sans GB','Microsoft YaHei','Helvetica Neue',sans-serif" opacity="1">5V</text>
<line x1="830.0" y1="140.0" x2="830.0" y2="172.0" stroke="#1f2937" stroke-width="2" stroke-linecap="round"/>
<rect x="823.0" y="172.0" width="14.0" height="36.0" rx="0" fill="#fff" stroke="#1f2937" stroke-width="2" opacity="1"/>
<line x1="830.0" y1="208.0" x2="830.0" y2="220.0" stroke="#1f2937" stroke-width="2" stroke-linecap="round"/>
<line x1="816.0" y1="220.0" x2="844.0" y2="220.0" stroke="#1f2937" stroke-width="2.6" stroke-linecap="round"/>
<line x1="816.0" y1="228.0" x2="844.0" y2="228.0" stroke="#1f2937" stroke-width="2.6" stroke-linecap="round"/>
<line x1="830.0" y1="228.0" x2="830.0" y2="246.0" stroke="#1f2937" stroke-width="2" stroke-linecap="round"/>
<line x1="830.0" y1="246.0" x2="830.0" y2="260.0" stroke="#1f2937" stroke-width="2" stroke-linecap="round"/>
<line x1="816.0" y1="260.0" x2="844.0" y2="260.0" stroke="#1f2937" stroke-width="2.4" stroke-linecap="round"/>
<line x1="821.3" y1="266.0" x2="838.7" y2="266.0" stroke="#1f2937" stroke-width="2.2" stroke-linecap="round"/>
<line x1="826.4" y1="272.0" x2="833.6" y2="272.0" stroke="#1f2937" stroke-width="2" stroke-linecap="round"/>
<text x="848.0" y="192.0" font-size="14" fill="#111827" text-anchor="start" font-weight="600" font-family="'PingFang SC','Hiragino Sans GB','Microsoft YaHei','Helvetica Neue',sans-serif" opacity="1">R</text>
<text x="848.0" y="230.0" font-size="14" fill="#111827" text-anchor="start" font-weight="600" font-family="'PingFang SC','Hiragino Sans GB','Microsoft YaHei','Helvetica Neue',sans-serif" opacity="1">C</text>
<line x1="830.0" y1="214.0" x2="922.0" y2="214.0" stroke="#1f2937" stroke-width="2" stroke-linecap="round"/>
<circle cx="830.0" cy="214.0" r="3.5" fill="#1f2937" stroke="none"/>
<text x="928.0" y="218.0" font-size="12" fill="#6b7280" text-anchor="start" font-weight="normal" font-family="'PingFang SC','Hiragino Sans GB','Microsoft YaHei','Helvetica Neue',sans-serif" opacity="1">输出 / 复位脚</text>
<rect x="700.0" y="320.0" width="300.0" height="200.0" rx="10" fill="#fbfcfe" stroke="#d7dee8" stroke-width="1.2" opacity="1"/>
<text x="720.0" y="352.0" font-size="15" fill="#111827" text-anchor="start" font-weight="700" font-family="'PingFang SC','Hiragino Sans GB','Microsoft YaHei','Helvetica Neue',sans-serif" opacity="1">常用 τ 速算</text>
<text x="720.0" y="384.0" font-size="13" fill="#374151" text-anchor="start" font-weight="normal" font-family="'SF Mono','Menlo',monospace" opacity="1">10kΩ + 100nF  →  τ = 1 ms</text>
<text x="720.0" y="414.0" font-size="13" fill="#374151" text-anchor="start" font-weight="normal" font-family="'SF Mono','Menlo',monospace" opacity="1">10kΩ + 10µF  →  τ = 100 ms</text>
<text x="720.0" y="444.0" font-size="13" fill="#374151" text-anchor="start" font-weight="normal" font-family="'SF Mono','Menlo',monospace" opacity="1">100kΩ + 10µF  →  τ = 1 s</text>
<text x="720.0" y="474.0" font-size="13" fill="#374151" text-anchor="start" font-weight="normal" font-family="'SF Mono','Menlo',monospace" opacity="1">1MΩ + 100nF  →  τ = 100 ms</text></svg>